<?xml version="1.0" encoding="utf-8"?>
<svg version="1.1" id="Layer_1" xmlns="http://www.w3.org/2000/svg" xmlns:xlink="http://www.w3.org/1999/xlink" x="0px" y="0px"
	 viewBox="0 0 795.9 264.5" style="enable-background:new 0 0 795.9 264.5;" xml:space="preserve">
<style type="text/css">
	.st0{fill:#FFFFFF;}
</style>
<g id="Four_Kitchens_3_">
	<g>
		<path class="st0" d="M328.5,86.7v9.7h-17.8v30h16.8v9.7h-16.8v41.2h-10.2V86.7H328.5z"/>
		<path class="st0" d="M355.3,178.3h-3.9c-11.3,0-16.9-5.7-16.9-16.9v-58.5c0-11.3,5.6-16.6,16.9-16.6h3.9
			c11.3,0,16.9,5.3,16.9,16.6v58.5C372.2,172.6,366.6,178.3,355.3,178.3z M355,95.4h-3.1c-4.7,0-7.1,2.3-7.1,6.9v59.6
			c0,4.7,2.4,6.7,7.1,6.7h3.1c4.7,0,7.1-2.1,7.1-6.7v-59.6C362.1,97.6,359.6,95.4,355,95.4z"/>
		<path class="st0" d="M416.5,161.4c0,11.3-5.7,16.9-17,16.9h-3.2c-11.3,0-16.9-5.7-16.9-16.9V86.7H390v75.2c0,4.7,2,6.7,6.6,6.7
			h2.5c4.7,0,6.7-2.1,6.7-6.7V86.7h10.7V161.4z"/>
		<path class="st0" d="M460.2,146.9v30.4h-10.7v-30c0-5.4-2.3-8.1-7.7-8.1h-7.5v38.1h-10.7V86.7h19.5c11.3,0,16.6,5.6,16.6,16.9
			v16.8c0,8.2-2.7,12.2-7.8,14.2C457.6,136.2,460.2,139.9,460.2,146.9z M442.7,96.4h-8.4V130h7.6c5.2,0,7.6-2.3,7.6-7.5v-19.4
			C449.6,98.4,447.4,96.4,442.7,96.4z"/>
		<path class="st0" d="M512.5,177.3l-17.2-44.4v44.4h-10.2V86.7h10.2v43.9l18.1-43.9h11l-18.6,44.5l18.1,46H512.5z"/>
		<path class="st0" d="M540.1,177.3h-10.2V86.7h10.2V177.3z"/>
		<path class="st0" d="M559.4,177.3V96.4h-13.7v-9.7h37.6v9.7h-13.2v80.9H559.4z"/>
		<path class="st0" d="M626.1,142.7v18.7c0,11.3-5.7,16.9-17,16.9h-3.4c-11.3,0-16.8-5.7-16.8-16.9v-58.5c0-11.3,5.5-16.6,16.8-16.6
			h3.4c11.1,0,16.5,5.2,16.5,16.3v16.2h-10.2v-16.5c0-4.7-2-6.9-6.7-6.9h-2.6c-4.7,0-7,2.3-7,6.9v59.6c0,4.7,2.4,6.7,7,6.7h2.8
			c4.7,0,6.9-2.1,6.9-6.7v-19.2H626.1z"/>
		<path class="st0" d="M660.1,126.4V86.7h10.2v90.5h-10.2v-41.2h-16.8v41.2h-10.2V86.7h10.2v39.7H660.1z"/>
		<path class="st0" d="M706.4,86.7v9.7h-17.8v30h17.3v9.7h-17.3v31.5h18.3v9.7h-29V86.7H706.4z"/>
		<path class="st0" d="M723.2,106.4v70.8h-9.7V86.7h14.2l14.8,65.4V86.7h10.2v90.5h-13L723.2,106.4z"/>
		<path class="st0" d="M795.9,148.1v13.2c0,11.3-5.5,16.9-16.7,16.9h-2.8c-11.1,0-16.5-5.7-16.5-16.7v-18.9H770V162
			c0,4.7,2.1,6.6,6.8,6.6h2.1c4.7,0,6.9-2,6.9-6.6v-13.6c0-4.5-1.6-6.5-4.6-8.7l-12.7-9.2c-6.7-4.8-8.7-9.5-8.7-16.8v-10.9
			c0-11.3,5.5-16.6,16.8-16.6h2.6c11.1,0,16.7,5.3,16.7,16.3v16.2h-10.2v-16.6c0-4.7-2.3-6.8-6.9-6.8H777c-4.7,0-7,2.1-7,6.8v11.4
			c0,4.5,1.8,6.5,4.7,8.7l12.5,9.1C793.9,136.1,795.9,140.4,795.9,148.1z"/>
	</g>
</g>
<g id="Logo_7_">
	<path class="st0" d="M132.2,0C59.2,0,0,59.2,0,132.2c0,73,59.2,132.2,132.2,132.2s132.2-59.2,132.2-132.2
		C264.5,59.2,205.3,0,132.2,0z M112.4,213.1c-0.8,6.8-4.8,9.5-7.5,9.5c-9.9,0-10.2-9.6-10.1-11.4c0.1-1.9,2.9-2.9,4.1-7
		c1.2-4.1-0.2-9-0.2-19.6c0-10.6,3.2-19.8,1.6-23.1c-1.6-3.3-27.4-3.1-27.4-3.1s2.1-33,9-63.7C90.5,55.9,110.3,42,110.3,42
		s2.8,20.7,2.8,50.2v70.3C114,179.6,113.6,201.9,112.4,213.1z M191.6,55.9h-4c-16.5,0-20.7,8.3-20.7,24.5v15.9
		c0,19.3-8,30.3-24.1,36c16.3,5.5,24.1,16.9,24.1,35.8v15.9c0,16.1,4.2,24.5,20.7,24.5h4v12.3h-6.4c-23,0-33.6-12.5-33.6-35.3V172
		c0-19.1-5.5-33-25-33h-1.7v-13.6h1.7c19.7,0,25-13.5,25-33V78.9c0-23.1,11-35.3,33.6-35.3h6.4V55.9z"/>
	<g>
		<path class="st0" d="M107,212.4c0,1.3-1,2.3-2.3,2.3c-1.3,0-2.3-1-2.3-2.3c0-1.3,1-2.3,2.3-2.3C105.9,210.1,107,211.1,107,212.4z"
			/>
		<path class="st0" d="M108.8,192.4c0,1.3-1,2.3-2.3,2.3c-1.3,0-2.3-1-2.3-2.3c0-1.3,1-2.3,2.3-2.3
			C107.8,190.1,108.8,191.1,108.8,192.4z"/>
		<path class="st0" d="M109.1,172.9c0,1.3-1,2.3-2.3,2.3c-1.3,0-2.3-1-2.3-2.3c0-1.3,1-2.3,2.3-2.3
			C108.1,170.6,109.1,171.6,109.1,172.9z"/>
	</g>
</g>
</svg>
