<!-- Generated by IcoMoon.io -->
<svg version="1.1" xmlns="http://www.w3.org/2000/svg" width="24" height="24" viewBox="0 0 24 24">
<title>person_pin_circle</title>
<path fill="#515151" d="M12 14.016c1.688 0 3.141-0.844 3.984-2.156 0-1.313-2.672-2.063-3.984-2.063s-3.984 0.75-3.984 2.063c0.844 1.313 2.297 2.156 3.984 2.156zM12 3.984c-1.078 0-2.016 0.938-2.016 2.016 0 1.125 0.938 2.016 2.016 2.016s2.016-0.891 2.016-2.016c0-1.078-0.938-2.016-2.016-2.016zM12 2.016c3.844 0 6.984 3.141 6.984 6.984 0 5.25-6.984 12.984-6.984 12.984s-6.984-7.734-6.984-12.984c0-3.844 3.141-6.984 6.984-6.984z"></path>
</svg>
