<?xml version="1.0" encoding="utf-8"?>
<!-- Generator: Adobe Illustrator 19.2.1, SVG Export Plug-In . SVG Version: 6.00 Build 0)  -->
<svg version="1.1" id="Layer_1" xmlns="http://www.w3.org/2000/svg" xmlns:xlink="http://www.w3.org/1999/xlink" x="0px" y="0px"
	 viewBox="0 0 300 100" style="enable-background:new 0 0 300 100;" xml:space="preserve">
<style type="text/css">
	.st0{fill:#6D6E71;}
</style>
<g>
	<path class="st0" d="M77.3,85.4l-8.8-20.6H35.2l-8.8,20.6h-8.4L51.3,9.7h1.3L86,85.4H77.3z M51.8,26L38.1,58h27.4L51.8,26z"/>
	<path class="st0" d="M129,66.5H97.8c0.9,7.3,5,12.8,15.9,12.8c3.5,0,7.8-1,11.8-2.3l1.4,6.8c-4.9,1.4-9.9,2.4-13.9,2.4
		c-15.3,0-23-9.6-23-21.9c0-11.7,7.5-22.3,20.7-22.3c12.1,0,18.7,8.9,18.7,20.5C129.3,63.9,129.3,65,129,66.5z M121.9,60.4
		c-0.5-6.6-4.3-11.8-11.8-11.8c-6.9,0-11.2,4.5-12.1,11.8H121.9z"/>
	<path class="st0" d="M146.4,56.3v29.1h-8V42.8h7.6v7.1c4.1-5.3,9.6-7.9,15.2-7.9v7.8C155,49.8,149.3,52,146.4,56.3z"/>
	<path class="st0" d="M193.6,85.4v-4.5c-3.4,3.3-7.9,5.3-13.2,5.3c-8.4,0-15.4-5-15.4-13.7c0-7.7,6.6-13.3,15.3-13.3
		c5.9,0,9.2,1.3,12.9,2.8v-2.5c0-7.2-3.3-10.5-11.2-10.5c-4.1,0-8.2,0.9-11.2,2.1l-1.3-6.9c4-1.2,9.2-2.2,13.5-2.2
		c12.2,0,18,5.8,18,18.1v25.4H193.6z M193.2,68.7c-4.3-2.3-6.9-3.4-11.6-3.4c-5.5,0-9,2.4-9,7.2c0,4.7,3.6,7.3,9.8,7.3
		c4.5,0,8.1-2.2,10.8-5.3V68.7z"/>
	<path class="st0" d="M221.9,49.7v23.9c0,4,2.2,5.6,6.7,5.6c1.2,0,2.1-0.1,3.5-0.3l0.8,6.5c-2.5,0.5-4.8,0.8-7,0.8
		c-7.7,0-11.9-4.1-11.9-13.4V49.7h-6.8v-1l6.8-6.6v-7.4l7.8-5.8v13.9h12.6v6.9H221.9z"/>
	<path class="st0" d="M278.9,66.5h-31.2c0.9,7.3,5,12.8,15.9,12.8c3.5,0,7.8-1,11.8-2.3l1.4,6.8c-4.9,1.4-9.9,2.4-13.9,2.4
		c-15.3,0-23-9.6-23-21.9c0-11.7,7.5-22.3,20.7-22.3c12.1,0,18.7,8.9,18.7,20.5C279.2,63.9,279.2,65,278.9,66.5z M271.8,60.4
		c-0.5-6.6-4.3-11.8-11.8-11.8c-6.9,0-11.2,4.5-12.1,11.8H271.8z"/>
</g>
</svg>
